<?xml version="1.0" encoding="UTF-8" standalone="no"?>
<!-- Created with Inkscape (http://www.inkscape.org/) -->

<svg
   xmlns:dc="http://purl.org/dc/elements/1.1/"
   xmlns:cc="http://creativecommons.org/ns#"
   xmlns:rdf="http://www.w3.org/1999/02/22-rdf-syntax-ns#"
   xmlns:svg="http://www.w3.org/2000/svg"
   xmlns="http://www.w3.org/2000/svg"
   xmlns:sodipodi="http://sodipodi.sourceforge.net/DTD/sodipodi-0.dtd"
   xmlns:inkscape="http://www.inkscape.org/namespaces/inkscape"
   width="210mm"
   height="297mm"
   id="svg2"
   version="1.1"
   inkscape:version="0.48.5 r10040"
   sodipodi:docname="blocks.svg">
  <defs
     id="defs4">
    <inkscape:perspective
       sodipodi:type="inkscape:persp3d"
       inkscape:vp_x="125.71428 : 816.18109 : 1"
       inkscape:vp_y="0 : 1000 : 0"
       inkscape:vp_z="516.95162 : 569.03823 : 1"
       inkscape:persp3d-origin="372.04724 : 350.78739 : 1"
       id="perspective2987" />
  </defs>
  <sodipodi:namedview
     id="base"
     pagecolor="#ffffff"
     bordercolor="#666666"
     borderopacity="1.0"
     inkscape:pageopacity="0.0"
     inkscape:pageshadow="2"
     inkscape:zoom="0.49497475"
     inkscape:cx="355.57457"
     inkscape:cy="596.94038"
     inkscape:document-units="px"
     inkscape:current-layer="layer1"
     showgrid="false"
     inkscape:window-width="1366"
     inkscape:window-height="713"
     inkscape:window-x="0"
     inkscape:window-y="33"
     inkscape:window-maximized="1" />
  <metadata
     id="metadata7">
    <rdf:RDF>
      <cc:Work
         rdf:about="">
        <dc:format>image/svg+xml</dc:format>
        <dc:type
           rdf:resource="http://purl.org/dc/dcmitype/StillImage" />
        <dc:title />
      </cc:Work>
    </rdf:RDF>
  </metadata>
  <g
     inkscape:label="Camada 1"
     inkscape:groupmode="layer"
     id="layer1">
    <path
       sodipodi:type="arc"
       style="fill:#00ff00;fill-opacity:1;stroke:none"
       id="path2985"
       sodipodi:cx="136.42857"
       sodipodi:cy="125.93361"
       sodipodi:rx="43.57143"
       sodipodi:ry="43.57143"
       d="m 180,125.93361 a 43.57143,43.57143 0 1 1 -2.8e-4,-0.15653"
       sodipodi:start="0"
       sodipodi:end="6.2795929"
       sodipodi:open="true"
       transform="matrix(1.4688524,0,0,1.4688524,-130.39344,-88.044274)"
       inkscape:export-filename="/home/farrer/projetos/dnteam/memwar/data/models/block/ball_red.png"
       inkscape:export-xdpi="45"
       inkscape:export-ydpi="45" />
    <path
       sodipodi:type="star"
       style="fill:#00ff00;fill-opacity:1;stroke:none"
       id="path3003"
       sodipodi:sides="5"
       sodipodi:cx="301.42856"
       sodipodi:cy="76.647896"
       sodipodi:r1="98.312286"
       sodipodi:r2="48.122643"
       sodipodi:arg1="0.95054684"
       sodipodi:arg2="1.5743142"
       inkscape:flatsided="false"
       inkscape:rounded="0"
       inkscape:randomized="0"
       d="m 358.57141,156.64789 -57.31214,-31.87765 -58.25712,30.9451 12.60703,-64.357825 -47.43298,-45.843249 65.10371,-7.89767 28.94193,-59.277786 27.62928,59.476797 65.32007,9.207562 -48.02788,44.656353 z"
       inkscape:transform-center-x="-0.16779964"
       inkscape:transform-center-y="-6.5716321"
       transform="matrix(0.68451031,0,0,0.71785462,3.677445,44.197479)"
       inkscape:export-filename="/home/farrer/projetos/dnteam/memwar/data/models/block/st1_red.png"
       inkscape:export-xdpi="45"
       inkscape:export-ydpi="45" />
    <path
       sodipodi:type="star"
       style="fill:#00ff00;fill-opacity:1;stroke:none"
       id="path3005"
       sodipodi:sides="5"
       sodipodi:cx="461.42856"
       sodipodi:cy="89.505035"
       sodipodi:r1="103.14444"
       sodipodi:r2="21.730904"
       sodipodi:arg1="0.93283533"
       sodipodi:arg2="1.5611538"
       inkscape:flatsided="false"
       inkscape:rounded="0"
       inkscape:randomized="0"
       d="m 522.85713,172.36218 -61.21903,-61.12725 -60.02889,62.29641 39.21774,-77.112116 -77.79736,-37.840217 85.45694,13.469338 11.94748,-85.682954 13.59754,85.436628 85.18131,-15.114761 -77.05319,39.333402 z"
       inkscape:transform-center-x="-0.66783143"
       inkscape:transform-center-y="-5.9807765"
       transform="matrix(0.65245117,0,0,0.68388507,51.59908,37.712831)"
       inkscape:export-filename="/home/farrer/projetos/dnteam/memwar/data/models/block/st2_red.png"
       inkscape:export-xdpi="45"
       inkscape:export-ydpi="45" />
    <path
       transform="matrix(0.65245117,0,0,0.68388507,186.17051,41.998545)"
       inkscape:transform-center-y="-5.9807765"
       inkscape:transform-center-x="-0.66783143"
       d="m 522.85713,172.36218 -37.13403,-59.03834 -84.11389,60.2075 44.67375,-53.56041 -83.25337,-61.391923 64.74394,25.936185 32.66048,-98.149801 -4.65981,69.58986 103.43866,0.732007 -67.62385,17.072713 z"
       inkscape:randomized="0"
       inkscape:rounded="0"
       inkscape:flatsided="false"
       sodipodi:arg2="0.77551064"
       sodipodi:arg1="0.93283533"
       sodipodi:r2="34.02293"
       sodipodi:r1="103.14444"
       sodipodi:cy="89.505035"
       sodipodi:cx="461.42856"
       sodipodi:sides="5"
       id="path3007"
       style="fill:#00ff00;fill-opacity:1;stroke:none"
       sodipodi:type="star"
       inkscape:export-filename="/home/farrer/projetos/dnteam/memwar/data/models/block/st3_red.png"
       inkscape:export-xdpi="45"
       inkscape:export-ydpi="45" />
    <path
       sodipodi:type="spiral"
       style="fill:none;stroke:#00ff00;stroke-width:5.58946991000000004;stroke-linecap:butt;stroke-linejoin:miter;stroke-miterlimit:4;stroke-opacity:1;stroke-dasharray:none"
       id="path3032"
       sodipodi:cx="354.28571"
       sodipodi:cy="316.64789"
       sodipodi:expansion="1"
       sodipodi:revolution="3"
       sodipodi:radius="69.237831"
       sodipodi:argument="-21.610641"
       sodipodi:t0="0"
       d="m 354.28571,316.64789 c -3.22319,-1.28928 0.14771,-4.98087 2.14286,-5.35714 5.40672,-1.01968 8.91048,4.9638 8.57142,9.64286 -0.60651,8.36974 -9.46244,13.11519 -17.14287,11.7857 -11.27133,-1.95108 -17.40785,-14.00885 -14.99998,-24.64287 3.20931,-14.17346 18.57049,-21.73578 32.14287,-18.21426 17.07945,4.43148 26.08152,23.13896 21.42854,39.64287 -5.63538,19.98845 -27.71119,30.43749 -47.14287,24.64283 -22.89957,-6.82881 -34.79985,-32.28576 -27.8571,-54.64288 8.01567,-25.81218 36.86187,-39.16649 62.14287,-31.07138 28.72588,9.19818 43.53613,41.4391 34.28567,69.64288 -10.37763,31.64038 -46.01712,47.90794 -77.14288,37.49994 -34.5555,-11.55485 -52.28139,-50.59575 -40.71423,-84.64288"
       transform="matrix(0.98463571,0,0,1.085131,296.32694,-247.87993)"
       inkscape:export-filename="/home/farrer/projetos/dnteam/memwar/data/models/block/el_red.png"
       inkscape:export-xdpi="45"
       inkscape:export-ydpi="45" />
    <path
       transform="matrix(1.4688524,0,0,1.4688524,-130.39344,67.955726)"
       sodipodi:open="true"
       sodipodi:end="6.2795929"
       sodipodi:start="0"
       d="m 180,125.93361 a 43.57143,43.57143 0 1 1 -2.8e-4,-0.15653"
       sodipodi:ry="43.57143"
       sodipodi:rx="43.57143"
       sodipodi:cy="125.93361"
       sodipodi:cx="136.42857"
       id="path3810"
       style="fill:#000080;fill-opacity:1;stroke:none"
       sodipodi:type="arc"
       inkscape:export-filename="/home/farrer/projetos/dnteam/memwar/data/models/block/ball_blue.png"
       inkscape:export-xdpi="45"
       inkscape:export-ydpi="45" />
    <path
       transform="matrix(0.68451031,0,0,0.71785462,3.677445,200.19748)"
       inkscape:transform-center-y="-6.5716321"
       inkscape:transform-center-x="-0.16779964"
       d="m 358.57141,156.64789 -57.31214,-31.87765 -58.25712,30.9451 12.60703,-64.357825 -47.43298,-45.843249 65.10371,-7.89767 28.94193,-59.277786 27.62928,59.476797 65.32007,9.207562 -48.02788,44.656353 z"
       inkscape:randomized="0"
       inkscape:rounded="0"
       inkscape:flatsided="false"
       sodipodi:arg2="1.5743142"
       sodipodi:arg1="0.95054684"
       sodipodi:r2="48.122643"
       sodipodi:r1="98.312286"
       sodipodi:cy="76.647896"
       sodipodi:cx="301.42856"
       sodipodi:sides="5"
       id="path3812"
       style="fill:#000080;fill-opacity:1;stroke:none"
       sodipodi:type="star"
       inkscape:export-filename="/home/farrer/projetos/dnteam/memwar/data/models/block/st1_blue.png"
       inkscape:export-xdpi="45"
       inkscape:export-ydpi="45" />
    <path
       transform="matrix(0.65245117,0,0,0.68388507,51.59908,193.71283)"
       inkscape:transform-center-y="-5.9807765"
       inkscape:transform-center-x="-0.66783143"
       d="m 522.85713,172.36218 -61.21903,-61.12725 -60.02889,62.29641 39.21774,-77.112116 -77.79736,-37.840217 85.45694,13.469338 11.94748,-85.682954 13.59754,85.436628 85.18131,-15.114761 -77.05319,39.333402 z"
       inkscape:randomized="0"
       inkscape:rounded="0"
       inkscape:flatsided="false"
       sodipodi:arg2="1.5611538"
       sodipodi:arg1="0.93283533"
       sodipodi:r2="21.730904"
       sodipodi:r1="103.14444"
       sodipodi:cy="89.505035"
       sodipodi:cx="461.42856"
       sodipodi:sides="5"
       id="path3814"
       style="fill:#000080;fill-opacity:1;stroke:none"
       sodipodi:type="star"
       inkscape:export-filename="/home/farrer/projetos/dnteam/memwar/data/models/block/st2_blue.png"
       inkscape:export-xdpi="45"
       inkscape:export-ydpi="45" />
    <path
       sodipodi:type="star"
       style="fill:#000080;fill-opacity:1;stroke:none"
       id="path3816"
       sodipodi:sides="5"
       sodipodi:cx="461.42856"
       sodipodi:cy="89.505035"
       sodipodi:r1="103.14444"
       sodipodi:r2="34.02293"
       sodipodi:arg1="0.93283533"
       sodipodi:arg2="0.77551064"
       inkscape:flatsided="false"
       inkscape:rounded="0"
       inkscape:randomized="0"
       d="m 522.85713,172.36218 -37.13403,-59.03834 -84.11389,60.2075 44.67375,-53.56041 -83.25337,-61.391923 64.74394,25.936185 32.66048,-98.149801 -4.65981,69.58986 103.43866,0.732007 -67.62385,17.072713 z"
       inkscape:transform-center-x="-0.66783143"
       inkscape:transform-center-y="-5.9807765"
       transform="matrix(0.65245117,0,0,0.68388507,186.17051,197.99855)"
       inkscape:export-filename="/home/farrer/projetos/dnteam/memwar/data/models/block/st3_blue.png"
       inkscape:export-xdpi="45"
       inkscape:export-ydpi="45" />
    <path
       transform="matrix(0.98463571,0,0,1.085131,296.32694,-91.87993)"
       d="m 354.28571,316.64789 c -3.22319,-1.28928 0.14771,-4.98087 2.14286,-5.35714 5.40672,-1.01968 8.91048,4.9638 8.57142,9.64286 -0.60651,8.36974 -9.46244,13.11519 -17.14287,11.7857 -11.27133,-1.95108 -17.40785,-14.00885 -14.99998,-24.64287 3.20931,-14.17346 18.57049,-21.73578 32.14287,-18.21426 17.07945,4.43148 26.08152,23.13896 21.42854,39.64287 -5.63538,19.98845 -27.71119,30.43749 -47.14287,24.64283 -22.89957,-6.82881 -34.79985,-32.28576 -27.8571,-54.64288 8.01567,-25.81218 36.86187,-39.16649 62.14287,-31.07138 28.72588,9.19818 43.53613,41.4391 34.28567,69.64288 -10.37763,31.64038 -46.01712,47.90794 -77.14288,37.49994 -34.5555,-11.55485 -52.28139,-50.59575 -40.71423,-84.64288"
       sodipodi:t0="0"
       sodipodi:argument="-21.610641"
       sodipodi:radius="69.237831"
       sodipodi:revolution="3"
       sodipodi:expansion="1"
       sodipodi:cy="316.64789"
       sodipodi:cx="354.28571"
       id="path3818"
       style="fill:none;stroke:#000080;stroke-width:5.58946991000000004;stroke-linecap:butt;stroke-linejoin:miter;stroke-miterlimit:4;stroke-opacity:1;stroke-dasharray:none"
       sodipodi:type="spiral"
       inkscape:export-filename="/home/farrer/projetos/dnteam/memwar/data/models/block/el_blue.png"
       inkscape:export-xdpi="45"
       inkscape:export-ydpi="45" />
    <path
       sodipodi:type="arc"
       style="fill:#ff6600;fill-opacity:1;stroke:none"
       id="path3820"
       sodipodi:cx="136.42857"
       sodipodi:cy="125.93361"
       sodipodi:rx="43.57143"
       sodipodi:ry="43.57143"
       d="m 180,125.93361 a 43.57143,43.57143 0 1 1 -2.8e-4,-0.15653"
       sodipodi:start="0"
       sodipodi:end="6.2795929"
       sodipodi:open="true"
       transform="matrix(1.4688524,0,0,1.4688524,-130.39344,227.95573)"
       inkscape:export-filename="/home/farrer/projetos/dnteam/memwar/data/models/block/ball_orange.png"
       inkscape:export-xdpi="45"
       inkscape:export-ydpi="45" />
    <path
       sodipodi:type="star"
       style="fill:#ff6600;fill-opacity:1;stroke:none"
       id="path3822"
       sodipodi:sides="5"
       sodipodi:cx="301.42856"
       sodipodi:cy="76.647896"
       sodipodi:r1="98.312286"
       sodipodi:r2="48.122643"
       sodipodi:arg1="0.95054684"
       sodipodi:arg2="1.5743142"
       inkscape:flatsided="false"
       inkscape:rounded="0"
       inkscape:randomized="0"
       d="m 358.57141,156.64789 -57.31214,-31.87765 -58.25712,30.9451 12.60703,-64.357825 -47.43298,-45.843249 65.10371,-7.89767 28.94193,-59.277786 27.62928,59.476797 65.32007,9.207562 -48.02788,44.656353 z"
       inkscape:transform-center-x="-0.16779964"
       inkscape:transform-center-y="-6.5716321"
       transform="matrix(0.68451031,0,0,0.71785462,3.677445,360.19748)"
       inkscape:export-filename="/home/farrer/projetos/dnteam/memwar/data/models/block/st1_orange.png"
       inkscape:export-xdpi="45"
       inkscape:export-ydpi="45" />
    <path
       sodipodi:type="star"
       style="fill:#ff6600;fill-opacity:1;stroke:none"
       id="path3824"
       sodipodi:sides="5"
       sodipodi:cx="461.42856"
       sodipodi:cy="89.505035"
       sodipodi:r1="103.14444"
       sodipodi:r2="21.730904"
       sodipodi:arg1="0.93283533"
       sodipodi:arg2="1.5611538"
       inkscape:flatsided="false"
       inkscape:rounded="0"
       inkscape:randomized="0"
       d="m 522.85713,172.36218 -61.21903,-61.12725 -60.02889,62.29641 39.21774,-77.112116 -77.79736,-37.840217 85.45694,13.469338 11.94748,-85.682954 13.59754,85.436628 85.18131,-15.114761 -77.05319,39.333402 z"
       inkscape:transform-center-x="-0.66783143"
       inkscape:transform-center-y="-5.9807765"
       transform="matrix(0.65245117,0,0,0.68388507,51.59908,353.71283)"
       inkscape:export-filename="/home/farrer/projetos/dnteam/memwar/data/models/block/st2_orange.png"
       inkscape:export-xdpi="45"
       inkscape:export-ydpi="45" />
    <path
       transform="matrix(0.65245117,0,0,0.68388507,186.17051,357.99855)"
       inkscape:transform-center-y="-5.9807765"
       inkscape:transform-center-x="-0.66783143"
       d="m 522.85713,172.36218 -37.13403,-59.03834 -84.11389,60.2075 44.67375,-53.56041 -83.25337,-61.391923 64.74394,25.936185 32.66048,-98.149801 -4.65981,69.58986 103.43866,0.732007 -67.62385,17.072713 z"
       inkscape:randomized="0"
       inkscape:rounded="0"
       inkscape:flatsided="false"
       sodipodi:arg2="0.77551064"
       sodipodi:arg1="0.93283533"
       sodipodi:r2="34.02293"
       sodipodi:r1="103.14444"
       sodipodi:cy="89.505035"
       sodipodi:cx="461.42856"
       sodipodi:sides="5"
       id="path3826"
       style="fill:#ff6600;fill-opacity:1;stroke:none"
       sodipodi:type="star"
       inkscape:export-filename="/home/farrer/projetos/dnteam/memwar/data/models/block/st3_orange.png"
       inkscape:export-xdpi="45"
       inkscape:export-ydpi="45" />
    <path
       sodipodi:type="spiral"
       style="fill:none;stroke:#ff6600;stroke-width:5.58946991000000004;stroke-linecap:butt;stroke-linejoin:miter;stroke-miterlimit:4;stroke-opacity:1;stroke-dasharray:none"
       id="path3828"
       sodipodi:cx="354.28571"
       sodipodi:cy="316.64789"
       sodipodi:expansion="1"
       sodipodi:revolution="3"
       sodipodi:radius="69.237831"
       sodipodi:argument="-21.610641"
       sodipodi:t0="0"
       d="m 354.28571,316.64789 c -3.22319,-1.28928 0.14771,-4.98087 2.14286,-5.35714 5.40672,-1.01968 8.91048,4.9638 8.57142,9.64286 -0.60651,8.36974 -9.46244,13.11519 -17.14287,11.7857 -11.27133,-1.95108 -17.40785,-14.00885 -14.99998,-24.64287 3.20931,-14.17346 18.57049,-21.73578 32.14287,-18.21426 17.07945,4.43148 26.08152,23.13896 21.42854,39.64287 -5.63538,19.98845 -27.71119,30.43749 -47.14287,24.64283 -22.89957,-6.82881 -34.79985,-32.28576 -27.8571,-54.64288 8.01567,-25.81218 36.86187,-39.16649 62.14287,-31.07138 28.72588,9.19818 43.53613,41.4391 34.28567,69.64288 -10.37763,31.64038 -46.01712,47.90794 -77.14288,37.49994 -34.5555,-11.55485 -52.28139,-50.59575 -40.71423,-84.64288"
       transform="matrix(0.98463571,0,0,1.085131,296.32694,68.12007)"
       inkscape:export-filename="/home/farrer/projetos/dnteam/memwar/data/models/block/el_orange.png"
       inkscape:export-xdpi="45"
       inkscape:export-ydpi="45" />
    <path
       transform="matrix(1.4688524,0,0,1.4688524,-130.39344,387.95573)"
       sodipodi:open="true"
       sodipodi:end="6.2795929"
       sodipodi:start="0"
       d="m 180,125.93361 a 43.57143,43.57143 0 1 1 -2.8e-4,-0.15653"
       sodipodi:ry="43.57143"
       sodipodi:rx="43.57143"
       sodipodi:cy="125.93361"
       sodipodi:cx="136.42857"
       id="path3830"
       style="fill:#37abc8;fill-opacity:1;stroke:none"
       sodipodi:type="arc"
       inkscape:export-filename="/home/farrer/projetos/dnteam/memwar/data/models/block/ball_lblue.png"
       inkscape:export-xdpi="45"
       inkscape:export-ydpi="45" />
    <path
       transform="matrix(0.68451031,0,0,0.71785462,3.677445,520.19748)"
       inkscape:transform-center-y="-6.5716321"
       inkscape:transform-center-x="-0.16779964"
       d="m 358.57141,156.64789 -57.31214,-31.87765 -58.25712,30.9451 12.60703,-64.357825 -47.43298,-45.843249 65.10371,-7.89767 28.94193,-59.277786 27.62928,59.476797 65.32007,9.207562 -48.02788,44.656353 z"
       inkscape:randomized="0"
       inkscape:rounded="0"
       inkscape:flatsided="false"
       sodipodi:arg2="1.5743142"
       sodipodi:arg1="0.95054684"
       sodipodi:r2="48.122643"
       sodipodi:r1="98.312286"
       sodipodi:cy="76.647896"
       sodipodi:cx="301.42856"
       sodipodi:sides="5"
       id="path3832"
       style="fill:#37abc8;fill-opacity:1;stroke:none"
       sodipodi:type="star"
       inkscape:export-filename="/home/farrer/projetos/dnteam/memwar/data/models/block/st1_blue1.png"
       inkscape:export-xdpi="45"
       inkscape:export-ydpi="45" />
    <path
       transform="matrix(0.65245117,0,0,0.68388507,51.59908,513.71283)"
       inkscape:transform-center-y="-5.9807765"
       inkscape:transform-center-x="-0.66783143"
       d="m 522.85713,172.36218 -61.21903,-61.12725 -60.02889,62.29641 39.21774,-77.112116 -77.79736,-37.840217 85.45694,13.469338 11.94748,-85.682954 13.59754,85.436628 85.18131,-15.114761 -77.05319,39.333402 z"
       inkscape:randomized="0"
       inkscape:rounded="0"
       inkscape:flatsided="false"
       sodipodi:arg2="1.5611538"
       sodipodi:arg1="0.93283533"
       sodipodi:r2="21.730904"
       sodipodi:r1="103.14444"
       sodipodi:cy="89.505035"
       sodipodi:cx="461.42856"
       sodipodi:sides="5"
       id="path3834"
       style="fill:#37abc8;fill-opacity:1;stroke:none"
       sodipodi:type="star"
       inkscape:export-filename="/home/farrer/projetos/dnteam/memwar/data/models/block/st2_blue1.png"
       inkscape:export-xdpi="45"
       inkscape:export-ydpi="45" />
    <path
       sodipodi:type="star"
       style="fill:#37abc8;fill-opacity:1;stroke:none"
       id="path3836"
       sodipodi:sides="5"
       sodipodi:cx="461.42856"
       sodipodi:cy="89.505035"
       sodipodi:r1="103.14444"
       sodipodi:r2="34.02293"
       sodipodi:arg1="0.93283533"
       sodipodi:arg2="0.77551064"
       inkscape:flatsided="false"
       inkscape:rounded="0"
       inkscape:randomized="0"
       d="m 522.85713,172.36218 -37.13403,-59.03834 -84.11389,60.2075 44.67375,-53.56041 -83.25337,-61.391923 64.74394,25.936185 32.66048,-98.149801 -4.65981,69.58986 103.43866,0.732007 -67.62385,17.072713 z"
       inkscape:transform-center-x="-0.66783143"
       inkscape:transform-center-y="-5.9807765"
       transform="matrix(0.65245117,0,0,0.68388507,186.17051,517.99855)"
       inkscape:export-filename="/home/farrer/projetos/dnteam/memwar/data/models/block/st3_blue1.png"
       inkscape:export-xdpi="45"
       inkscape:export-ydpi="45" />
    <path
       transform="matrix(0.98463571,0,0,1.085131,296.32694,228.12007)"
       d="m 354.28571,316.64789 c -3.22319,-1.28928 0.14771,-4.98087 2.14286,-5.35714 5.40672,-1.01968 8.91048,4.9638 8.57142,9.64286 -0.60651,8.36974 -9.46244,13.11519 -17.14287,11.7857 -11.27133,-1.95108 -17.40785,-14.00885 -14.99998,-24.64287 3.20931,-14.17346 18.57049,-21.73578 32.14287,-18.21426 17.07945,4.43148 26.08152,23.13896 21.42854,39.64287 -5.63538,19.98845 -27.71119,30.43749 -47.14287,24.64283 -22.89957,-6.82881 -34.79985,-32.28576 -27.8571,-54.64288 8.01567,-25.81218 36.86187,-39.16649 62.14287,-31.07138 28.72588,9.19818 43.53613,41.4391 34.28567,69.64288 -10.37763,31.64038 -46.01712,47.90794 -77.14288,37.49994 -34.5555,-11.55485 -52.28139,-50.59575 -40.71423,-84.64288"
       sodipodi:t0="0"
       sodipodi:argument="-21.610641"
       sodipodi:radius="69.237831"
       sodipodi:revolution="3"
       sodipodi:expansion="1"
       sodipodi:cy="316.64789"
       sodipodi:cx="354.28571"
       id="path3838"
       style="fill:none;stroke:#37abc8;stroke-width:5.58946991000000004;stroke-linecap:butt;stroke-linejoin:miter;stroke-miterlimit:4;stroke-opacity:1;stroke-dasharray:none"
       sodipodi:type="spiral"
       inkscape:export-filename="/home/farrer/projetos/dnteam/memwar/data/models/block/el_blue1.png"
       inkscape:export-xdpi="45"
       inkscape:export-ydpi="45" />
  </g>
</svg>
